<?xml version="1.0" encoding="utf-8"?>
<svg width="22" height="30" version="1.1" xmlns="http://www.w3.org/2000/svg" xmlns:xlink="http://www.w3.org/1999/xlink" viewBox="0 0 22 30" xml:space="preserve">
	<path fill="#38A068" d="M0,30c0-6.08,4.93-11,11-11c6.07,0,11,4.92,11,11h-2.75c0-4.56-3.69-8.25-8.25-8.25S2.75,25.44,2.75,30H0z M11,0C6.45,0,2.75,3.69,2.75,8.25c0,4.56,3.69,8.25,8.25,8.25c0,0,0,0,0,0c4.55,0,8.25-3.69,8.25-8.25C19.25,3.69,15.56,0,11,0z M11,13.75C11,13.75,11,13.75,11,13.75c-3.04,0-5.5-2.46-5.5-5.5c0-3.04,2.46-5.5,5.5-5.5c3.04,0,5.5,2.46,5.5,5.5 S14.04,13.75,11,13.75z"/>
</svg>